<svg xmlns="http://www.w3.org/2000/svg" width="24" height="24"><g data-name="icon(24X24)_volume_2"><path data-name="사각형 53223" d="M0 0h24v24H0z" fill="none"/><g data-name="그룹 149917" fill="#fff"><path data-name="합치기 1302" d="M7.063 15.201v-6.4l5.711-3.459v13.316zm-3.8 0v-6.4h3.8v6.4z"/><path data-name="빼기 124" d="M15.37 15.262l-.483-1.205A2.218 2.218 0 0016.297 12a2.195 2.195 0 00-1.367-2.033l.479-1.209A3.485 3.485 0 0117.597 12a3.481 3.481 0 01-2.226 3.262z"/><path data-name="빼기 125" d="M16.671 18.51l-.452-1.127a5.785 5.785 0 002.634-2.094A5.74 5.74 0 0019.881 12a5.747 5.747 0 00-1.018-3.273 5.8 5.8 0 00-2.612-2.1l.447-1.131a7.006 7.006 0 013.165 2.535 6.96 6.96 0 011.232 3.965 6.963 6.963 0 01-1.24 3.98 6.968 6.968 0 01-3.183 2.529z"/></g></g></svg>